<svg xmlns="http://www.w3.org/2000/svg" viewBox="0 0 500 372.61"><defs><style>.cls-1{fill:#ebebeb;}.cls-2{fill:#e6e6e6;}.cls-3{fill:#f0f0f0;}.cls-4{fill:#f5f5f5;}.cls-5{fill:#fafafa;}.cls-10,.cls-6,.cls-9{fill:#fff;}.cls-13,.cls-7{fill:#e0e0e0;}.cls-7{opacity:0.6;}.cls-12,.cls-8{fill:#407bff;}.cls-9{opacity:0.5;}.cls-10{opacity:0.7;}.cls-11{opacity:0.2;}.cls-12,.cls-17{opacity:0.3;}.cls-14{fill:#ffb573;}.cls-15{fill:#263238;}.cls-16{fill:#ed893e;}</style></defs><title>Asset 1</title><g id="Layer_2" data-name="Layer 2"><g id="Background_Complete" data-name="Background Complete"><rect class="cls-1" y="327.45" width="500" height="0.25"/><rect class="cls-1" x="416.78" y="343.54" width="33.12" height="0.25"/><rect class="cls-1" x="322.53" y="346.26" width="8.69" height="0.25"/><rect class="cls-1" x="396.59" y="334.26" width="19.19" height="0.25"/><rect class="cls-1" x="52.46" y="335.94" width="43.19" height="0.25"/><rect class="cls-1" x="104.56" y="335.94" width="6.33" height="0.25"/><rect class="cls-1" x="131.47" y="340.16" width="93.68" height="0.25"/><path class="cls-1" d="M237,282.85H43.92a5.71,5.71,0,0,1-5.71-5.71V5.71A5.71,5.71,0,0,1,43.92,0H237a5.71,5.71,0,0,1,5.71,5.71V277.14A5.71,5.71,0,0,1,237,282.85ZM43.92.25a5.46,5.46,0,0,0-5.46,5.46V277.14a5.46,5.46,0,0,0,5.46,5.46H237a5.46,5.46,0,0,0,5.46-5.46V5.71A5.46,5.46,0,0,0,237,.25Z"/><path class="cls-1" d="M453.31,282.85H260.21a5.71,5.71,0,0,1-5.71-5.71V5.71A5.71,5.71,0,0,1,260.21,0h193.1A5.71,5.71,0,0,1,459,5.71V277.14A5.71,5.71,0,0,1,453.31,282.85ZM260.21.25a5.46,5.46,0,0,0-5.46,5.46V277.14a5.46,5.46,0,0,0,5.46,5.46h193.1a5.46,5.46,0,0,0,5.46-5.46V5.71A5.46,5.46,0,0,0,453.31.25Z"/><rect class="cls-2" x="258.34" y="224.53" width="28.89" height="102.92" transform="translate(545.58 551.97) rotate(180)"/><polygon class="cls-3" points="263.83 327.45 258.34 327.45 258.34 317.9 269.58 317.9 263.83 327.45"/><rect class="cls-2" x="423.17" y="224.53" width="28.89" height="102.92" transform="translate(875.24 551.97) rotate(180)"/><rect class="cls-3" x="258.34" y="224.53" width="169.62" height="100.42" transform="translate(686.31 549.47) rotate(180)"/><rect class="cls-2" x="352.74" y="249.79" width="88.88" height="50.28" transform="translate(122.25 672.11) rotate(-90)"/><path class="cls-3" d="M392.21,235.59h9.95a14.77,14.77,0,0,0,11.42-5.73H380.78A14.77,14.77,0,0,0,392.21,235.59Z"/><rect class="cls-2" x="298.71" y="249.79" width="88.88" height="50.28" transform="translate(68.22 618.08) rotate(-90)"/><path class="cls-3" d="M337.67,235.59h9.95A14.77,14.77,0,0,0,359,229.85H326.25A14.77,14.77,0,0,0,337.67,235.59Z"/><rect class="cls-2" x="244.68" y="249.79" width="88.88" height="50.28" transform="translate(14.19 564.05) rotate(-90)"/><path class="cls-3" d="M283.64,235.59h9.95A14.77,14.77,0,0,0,305,229.85H272.22A14.77,14.77,0,0,0,283.64,235.59Z"/><polygon class="cls-3" points="422.48 327.45 427.96 327.45 427.96 317.9 416.72 317.9 422.48 327.45"/><rect class="cls-2" x="76.65" y="32.73" width="193.83" height="165.03" transform="translate(347.13 230.5) rotate(180)"/><rect class="cls-4" x="72.29" y="32.73" width="196.29" height="165.03" transform="translate(340.87 230.5) rotate(180)"/><rect class="cls-5" x="95.84" y="24.94" width="149.19" height="180.63" transform="translate(285.69 -55.19) rotate(90)"/><polygon class="cls-6" points="238.59 189.85 167.5 40.65 143.35 40.65 214.44 189.85 238.59 189.85"/><polygon class="cls-6" points="207.6 189.85 136.5 40.65 119.88 40.65 190.97 189.85 207.6 189.85"/><rect class="cls-2" x="67.92" y="110.58" width="149.19" height="9.34" transform="translate(257.77 -27.27) rotate(90)"/><rect class="cls-2" x="130.01" y="110.58" width="149.19" height="9.34" transform="translate(319.86 -89.36) rotate(90)"/><rect class="cls-4" x="59.55" y="108.92" width="160.11" height="11.81" transform="translate(254.42 -24.78) rotate(90)"/><rect class="cls-4" x="121.64" y="108.92" width="160.11" height="11.81" transform="translate(316.51 -86.87) rotate(90)"/><rect class="cls-2" x="5.94" y="114.84" width="149.19" height="0.83" transform="translate(195.79 34.71) rotate(90)"/><path class="cls-2" d="M69,22.55H279a1,1,0,0,1,1,1h0a1,1,0,0,1-1,1H69a1,1,0,0,1-1-1h0A1,1,0,0,1,69,22.55Z"/><path class="cls-2" d="M270.48,29.21h0a1.37,1.37,0,0,0,1.36-1.36V24.92a1.37,1.37,0,0,0-1.36-1.36h0a1.37,1.37,0,0,0-1.36,1.36v2.93A1.37,1.37,0,0,0,270.48,29.21Z"/><path class="cls-2" d="M84.23,29.21h0a1.37,1.37,0,0,0,1.36-1.36V24.92a1.37,1.37,0,0,0-1.36-1.36h0a1.37,1.37,0,0,0-1.36,1.36v2.93A1.37,1.37,0,0,0,84.23,29.21Z"/><rect class="cls-7" x="69.33" y="23.56" width="196.15" height="81.91" transform="translate(334.8 129.03) rotate(180)"/><rect class="cls-2" x="72.01" y="244.8" width="5.04" height="82.64" transform="translate(149.06 572.25) rotate(180)"/><rect class="cls-2" x="162.95" y="228.72" width="27.29" height="16.08"/><rect class="cls-4" x="54.56" y="228.72" width="108.39" height="16.08" transform="translate(217.51 473.52) rotate(180)"/><rect class="cls-2" x="162.95" y="254.8" width="27.29" height="16.08"/><rect class="cls-4" x="54.56" y="254.8" width="108.39" height="16.08" transform="translate(217.51 525.69) rotate(180)"/><rect class="cls-2" x="162.95" y="280.89" width="27.29" height="16.08"/><rect class="cls-4" x="54.56" y="280.89" width="108.39" height="16.08" transform="translate(217.51 577.85) rotate(180)"/><rect class="cls-2" x="180.4" y="244.8" width="5.04" height="82.64" transform="translate(365.84 572.25) rotate(180)"/><rect class="cls-4" x="157.91" y="244.8" width="5.04" height="82.64" transform="translate(320.86 572.25) rotate(180)"/><rect class="cls-4" x="54.56" y="244.8" width="5.04" height="82.64" transform="translate(114.16 572.25) rotate(180)"/></g><g id="Shadow"><ellipse id="_Path_" data-name="&lt;Path&gt;" class="cls-4" cx="250" cy="361.29" rx="193.89" ry="11.32"/></g><g id="Invoice"><path class="cls-8" d="M396,315.89H233.6a11.39,11.39,0,0,1-11.49-12.44L242,42.68A13.7,13.7,0,0,1,255.4,30.24H417.8a11.39,11.39,0,0,1,11.49,12.44L409.4,303.45A13.7,13.7,0,0,1,396,315.89Z"/><path class="cls-9" d="M396,315.89H233.6a11.39,11.39,0,0,1-11.49-12.44L242,42.68A13.7,13.7,0,0,1,255.4,30.24H417.8a11.39,11.39,0,0,1,11.49,12.44L409.4,303.45A13.7,13.7,0,0,1,396,315.89Z"/><path class="cls-8" d="M393.59,315.89H231.18a11.39,11.39,0,0,1-11.49-12.44l19.9-260.77A13.7,13.7,0,0,1,253,30.24H415.38a11.39,11.39,0,0,1,11.49,12.44L407,303.45A13.7,13.7,0,0,1,393.59,315.89Z"/><path class="cls-10" d="M393.59,315.89H231.18a11.39,11.39,0,0,1-11.49-12.44l19.9-260.77A13.7,13.7,0,0,1,253,30.24H415.38a11.39,11.39,0,0,1,11.49,12.44L407,303.45A13.7,13.7,0,0,1,393.59,315.89Z"/><path class="cls-8" d="M231.5,311.74a7.58,7.58,0,0,1-7.66-8.29L243.47,46.14a9.12,9.12,0,0,1,8.93-8.29H414.8a7.58,7.58,0,0,1,7.66,8.29L402.83,303.45a9.12,9.12,0,0,1-8.93,8.29Z"/><path class="cls-11" d="M392.76,81.13H276.54A4.5,4.5,0,0,1,272,76.21h0a5.41,5.41,0,0,1,5.29-4.92H393.51a4.5,4.5,0,0,1,4.54,4.92h0A5.41,5.41,0,0,1,392.76,81.13Z"/><path class="cls-12" d="M343.18,35.31H324.41a1.11,1.11,0,0,1-1.12-1.21h0a1.33,1.33,0,0,1,1.3-1.21h18.77a1.11,1.11,0,0,1,1.12,1.21h0A1.33,1.33,0,0,1,343.18,35.31Z"/><path class="cls-3" d="M276,76.21a12.43,12.43,0,0,0-12.57-13.6h118A12.43,12.43,0,0,1,394,76.21Z"/><path class="cls-6" d="M263.47,62.61a14.94,14.94,0,0,0-14.64,13.6L236.73,234.68a14.94,14.94,0,0,1-14.64,13.6h118a14.94,14.94,0,0,0,14.64-13.6L366.82,76.21a14.94,14.94,0,0,1,14.64-13.6Z"/><path class="cls-3" d="M327.52,234.68a12.43,12.43,0,0,0,12.57,13.6h-118a12.43,12.43,0,0,1-12.57-13.6Z"/><path class="cls-13" d="M258.45,231.55c.44-5.79-1.38-10.48-7.16-10.48h90.86c5.78,0,10.13,5.29,7.16,10.48Z"/><path class="cls-3" d="M327.52,234.68a14.94,14.94,0,0,1,14.64-13.6h-118a14.94,14.94,0,0,0-14.64,13.6Z"/><path class="cls-6" d="M383.31,274H247.86a3.27,3.27,0,0,1-3.3-3.57h0a3.93,3.93,0,0,1,3.84-3.57H383.86a3.27,3.27,0,0,1,3.3,3.57h0A3.93,3.93,0,0,1,383.31,274Z"/><path class="cls-6" d="M314.91,291.13H246.55a3.27,3.27,0,0,1-3.3-3.57h0a3.93,3.93,0,0,1,3.84-3.57h68.36a3.27,3.27,0,0,1,3.3,3.57h0A3.93,3.93,0,0,1,314.91,291.13Z"/><path class="cls-6" d="M362.24,291.13H334.55a3.27,3.27,0,0,1-3.3-3.57h0a3.93,3.93,0,0,1,3.84-3.57h27.69a3.27,3.27,0,0,1,3.3,3.57h0A3.93,3.93,0,0,1,362.24,291.13Z"/><path class="cls-6" d="M389.93,223.23l-7.07,1.11a6.82,6.82,0,0,0-.81-1.85,4.18,4.18,0,0,0-1.32-1l-.41,5.43q5.59,1.52,7.38,3.21a6.88,6.88,0,0,1,2.09,5.77,8.34,8.34,0,0,1-1.2,3.76,10.42,10.42,0,0,1-5.68,4.52,15.3,15.3,0,0,1-4,.61l-.27,3.55h-2.74l.27-3.55a16.52,16.52,0,0,1-4.41-.89,8.19,8.19,0,0,1-2.83-1.79,7.89,7.89,0,0,1-1.74-2.47,10.87,10.87,0,0,1-.77-3.2l7.65-.88a6.7,6.7,0,0,0,.71,2.68,4.27,4.27,0,0,0,1.77,1.46l.51-6.63a32.81,32.81,0,0,1-5.24-1.82,6.37,6.37,0,0,1-2.56-2.47,6.79,6.79,0,0,1-.85-4.14,8.06,8.06,0,0,1,2.76-5.59,11.29,11.29,0,0,1,7.14-2.49l.14-1.86h2.74l-.14,1.86a10.8,10.8,0,0,1,6.28,2A7.27,7.27,0,0,1,389.93,223.23ZM378,221.35a3.88,3.88,0,0,0-1.75,1,2.29,2.29,0,0,0-.57,1.38,2.16,2.16,0,0,0,.37,1.44,3.19,3.19,0,0,0,1.59,1Zm1.33,18.49a4.76,4.76,0,0,0,2.43-1.18,2.89,2.89,0,0,0,.88-1.84,2.31,2.31,0,0,0-.5-1.63,5.17,5.17,0,0,0-2.34-1.38Z"/><polygon class="cls-8" points="352.36 131.6 254.83 131.6 255.03 128.9 352.57 128.9 352.36 131.6"/><polygon class="cls-3" points="352.36 131.6 254.83 131.6 254.19 139.88 351.73 139.88 352.36 131.6"/><polygon class="cls-3" points="351.1 148.17 253.56 148.17 252.93 156.45 350.47 156.45 351.1 148.17"/><polygon class="cls-3" points="349.83 164.73 252.3 164.73 251.67 173.01 349.2 173.01 349.83 164.73"/><polygon class="cls-3" points="348.57 181.3 251.03 181.3 250.4 189.58 347.94 189.58 348.57 181.3"/><polygon class="cls-8" points="347.1 200.57 249.56 200.57 249.77 197.86 347.31 197.86 347.1 200.57"/><polygon class="cls-3" points="335.94 81.13 356.21 81.13 355.29 93.22 335.02 93.22 335.94 81.13"/></g><g id="Character"><path class="cls-14" d="M137.18,158.05l3.63,1.46a8.15,8.15,0,0,1,3.36,2.51l1.66,2.1a3.68,3.68,0,0,1-.12,4.71l-1.77,2a3.68,3.68,0,0,1-5.23.31L137,169.64s-5.2-3.65-6.73-8.48l1-1A6.94,6.94,0,0,1,137.18,158.05Z"/><path class="cls-14" d="M147.1,123l-1.18.78-1.31.9c-.87.62-1.75,1.26-2.6,1.91-1.7,1.32-3.37,2.7-4.91,4.15a40.71,40.71,0,0,0-7.73,9.42q-.37.63-.68,1.27l-.16.32a3.15,3.15,0,0,0,.11-.41,1.53,1.53,0,0,0,0-.51c-.1-.29-.1.46.12,1.2a31.14,31.14,0,0,0,2.39,5.54c2.06,3.94,4.64,8,7.08,12l.06.1a3.51,3.51,0,0,1-5.15,4.6,70.58,70.58,0,0,1-10.93-10.71,34.79,34.79,0,0,1-4.6-7.13,18.44,18.44,0,0,1-.94-2.46,12.13,12.13,0,0,1-.52-3.37,9.84,9.84,0,0,1,.63-3.57l.19-.51q.38-1,.82-2a46.84,46.84,0,0,1,9.53-13.69,61.37,61.37,0,0,1,6-5.37c1.05-.82,2.13-1.62,3.24-2.37.56-.38,1.12-.76,1.7-1.11l.89-.54,1-.59a7,7,0,0,1,7.36,11.88Z"/><path class="cls-15" d="M147.22,107.1c-5.84,0-12.24,2.53-20.44,12.7,0,6.07,12.81,14.14,12.81,14.14S160.59,107,147.22,107.1Z"/><path class="cls-15" d="M103.83,347.49a.93.93,0,0,1-.31-.05c-1.21-.43-2.35-3.51-2.43-5.22a.28.28,0,0,1,.46-.23c.13.1,3.14,2.57,3.29,4.23a1.17,1.17,0,0,1-.28.9A1,1,0,0,1,103.83,347.49Zm-2.1-4.61c.27,1.63,1.2,3.75,2,4,.11,0,.25.05.43-.16a.62.62,0,0,0,.14-.48C104.2,345.29,102.72,343.76,101.74,342.88Z"/><path class="cls-15" d="M105.71,343.82a9.61,9.61,0,0,1-4.49-1.38.28.28,0,0,1,.08-.51c.16,0,3.93-1,5.36-.16a1.16,1.16,0,0,1,.57.75.92.92,0,0,1-.36,1A2.09,2.09,0,0,1,105.71,343.82Zm-3.57-1.51c1.47.74,3.74,1.24,4.41.78.1-.07.19-.17.13-.44a.62.62,0,0,0-.31-.4C105.54,341.74,103.43,342,102.14,342.31Z"/><path class="cls-8" d="M90.74,341.54a47.37,47.37,0,0,0,7.46-10.59s9.27,2.28,7.45,5c-3.3,4.85-4.92,14.82-.66,20.16,2.43,3-1.41,3.56-4,2.25-4-2.08-3.87-2.85-6-6.28-1.8-2.94-2.5-4.09-5-5.34C88,345.65,89,343.61,90.74,341.54Z"/><path class="cls-15" d="M169.44,167.38S156,233,146.14,261c-10.34,29.42-38.88,74.83-40,76.77-4.06-1.08-7.68-2.5-10.09-4.86,0,0,13.4-49.25,26.47-81.2,5-66.69,15.89-84.33,15.89-84.33Z"/><path class="cls-11" d="M148.91,202.48c-.61,12.69-1,30.14-.43,51.38,4.11-13.24,8.58-31.19,12.34-47.3C158.31,203.21,154.41,201.6,148.91,202.48Z"/><path class="cls-14" d="M149.72,86.94c1.41,5.7,2.79,15,.54,20,0,0,8.42.37,19.18,9,5.07-7.44-.8-8.9-.8-8.9-4.47-1.05-4.25-7-4.25-11.25Z"/><path class="cls-8" d="M147.6,109.49c-4.2-.46-1.3-8.44.89-7.67,5.52,2,17.89-.22,21.72,1.89s2.86,6.44,2.86,6.44S152.12,110,147.6,109.49Z"/><path class="cls-10" d="M147.6,109.49c-4.2-.46-1.3-8.44.89-7.67,5.52,2,17.89-.22,21.72,1.89s2.86,6.44,2.86,6.44S152.12,110,147.6,109.49Z"/><ellipse class="cls-15" cx="173" cy="76.71" rx="0.92" ry="1.4" transform="translate(-10.73 31.36) rotate(-10.05)"/><path class="cls-15" d="M172.55,75.41l1.74-.85S173.6,76.15,172.55,75.41Z"/><path class="cls-15" d="M173.12,70.77a.46.46,0,0,0-.52-.66,4.52,4.52,0,0,0-3.14,2.72.46.46,0,0,0,.87.29A3.6,3.6,0,0,1,172.84,71,.46.46,0,0,0,173.12,70.77Z"/><path class="cls-16" d="M173,78.72a20.71,20.71,0,0,0,3.26,4.64,3.33,3.33,0,0,1-2.7.8Z"/><path class="cls-14" d="M146,76.48c2.23,9.28,3,13.25,8.47,17.24,8.27,6,19,1.27,19.49-8.48.48-8.77-3.24-22.47-12.9-24.61S143.77,67.2,146,76.48Z"/><path class="cls-15" d="M164,78.18c5.46-7.22,9-13.05,6.33-19.44-2.25-5.34-8.48-3.78-9.35-1.11-16.56-1.41-22.51,4.59-19.09,14.51,2.18,6.32-6.28,3-4.22,11.08,1.58,6.16-4,8.51-1.16,12,4.08,5.11,12.5-1.56,22.11,2.28C166.45,100.68,178.27,95.94,164,78.18Z"/><path class="cls-14" d="M163.09,79.64a6.13,6.13,0,0,0,4.15,2.86c2.17.32,2.92-2.12,2-4.38-.8-2-2.9-4.65-4.94-3.93S161.86,77.7,163.09,79.64Z"/><path class="cls-15" d="M166.32,353.6a9,9,0,0,1-4.73-2.06.28.28,0,0,1,.16-.49c.16,0,4-.44,5.32.62a1.16,1.16,0,0,1,.45.83.92.92,0,0,1-.5,1A1.59,1.59,0,0,1,166.32,353.6Zm-3.81-2.05c1.35.94,3.52,1.77,4.25,1.41.11-.05.21-.14.19-.42a.62.62,0,0,0-.25-.44C166,351.48,163.83,351.47,162.51,351.55Z"/><path class="cls-15" d="M161.78,351.61a.28.28,0,0,1-.24-.42c.08-.14,2-3.52,3.64-3.93a1.16,1.16,0,0,1,.93.12.92.92,0,0,1,.48,1c-.22,1.27-3.08,2.9-4.75,3.25Zm3.73-3.84-.2,0c-.95.24-2.21,2-2.92,3.06,1.56-.54,3.51-1.8,3.65-2.6,0-.12,0-.26-.22-.4A.56.56,0,0,0,165.51,347.78Z"/><path class="cls-8" d="M173.75,357.12c-8.1-.63-13.56-6.19-13-12.08.32-3.25-10.07-3.54-10.07-3.54,1.64,10.07-.42,11.51-1.1,14.11s-.51,5.48,1.64,5.53c2.57.06,3.77-.43,7-.3,3.74.15,7.78.29,14.42.3C175.28,361.15,177.35,357.4,173.75,357.12Z"/><path class="cls-15" d="M183.44,167.38s-.71,49.68-4.63,82.33-17.4,96.69-17.4,96.69a22.49,22.49,0,0,1-10.77-.1s-4.26-50,2.9-98.37c-5.26-50.66-8.55-80.56-8.55-80.56Z"/><path class="cls-8" d="M185.28,121.42c-.17,3.84,5.89,12.71-1.59,17.86,1.4,3.12,2.58,24.31-.25,28.1-4.13,3-26.48,2.44-45,0-.78-7.66,3.43-23.53-1.73-48.28a9.87,9.87,0,0,1,8.67-11.83c1.56-.16,3.21-.29,4.9-.37a124.19,124.19,0,0,1,17.73,0c1.91.17,3.89.42,5.78.68A13.39,13.39,0,0,1,185.28,121.42Z"/><g class="cls-17"><path class="cls-15" d="M137.16,117.77l-.42.22h0a.26.26,0,0,0,.24.45l.45-.25c2,.73,4.14,2.39,5.37,2.56-2-1.75-3.41-3-5-2.78.47-.27.93-.56,1.39-.86,1.82.68,3.8,2.2,4.93,2.35-1.84-1.63-3.16-2.79-4.61-2.56l1-.7.57-.41c1.64.71,3.39,2.23,4.42,2.43-1.65-1.64-2.82-2.8-4.22-2.57.44-.32.87-.66,1.29-1,1.51.66,3.11,2,4.06,2.23-1.52-1.51-2.6-2.57-3.88-2.37l1.08-.9.26-.22c1.33.7,2.65,2.08,3.52,2.33-1.26-1.51-2.14-2.56-3.46-2.38l1-.9c1.23.64,2.44,1.91,3.24,2.14-1.16-1.39-2-2.35-3.18-2.2l1.05-1c1.07.66,2.09,1.86,2.8,2.11-1-1.31-1.64-2.23-2.73-2.18l.56-.55.32-.33c1,.61,1.93,1.71,2.58,1.94-.89-1.21-1.51-2.06-2.52-2q.44-.45.86-.92c.91.48,1.75,1.42,2.36,1.59-.8-1-1.35-1.73-2.32-1.64l.16-.17.6-.7a25.56,25.56,0,0,0,2.15,1.45c-.72-.93-1.23-1.58-2.09-1.51.23-.28.46-.57.66-.88a.08.08,0,0,0-.14-.09h0c-.2.28-.41.55-.63.81a1.86,1.86,0,0,0-.36-1.32l-.34,0a12.32,12.32,0,0,1,.55,1.48l-.54.6-.13.14c.19-.72-.19-1.35-.77-2.16l-.18,0c.16.62.62,1.46.82,2.28l-.8.82c.25-.92-.38-1.73-1.28-2.88,0,.69.84,1.89,1.16,3l-.28.28-.55.52c.25-1-.43-1.86-1.39-3.1,0,.74.91,2,1.26,3.23l-1,.87c.21-1-.45-2-1.37-3.3,0,.79.81,2.2,1.14,3.5l-.79.67c.23-1.08-.49-2.14-1.48-3.59,0,.86.88,2.38,1.24,3.79l-.21.17-1.11.88c.29-1.1-.4-2.36-1.34-4.06-.07.92.75,2.72,1,4.31q-.63.48-1.27.93c.48-1.25-.3-2.66-1.38-4.63-.08,1,.86,3.06,1.12,4.81l-.38.26c-.39.27-.79.52-1.2.77.56-1.27-.12-2.77-1.1-4.82l-.14.21c.08,1.2.77,3.13.93,4.8q-.67.41-1.36.79c.52-1.06.23-2.26-.42-3.76a9.81,9.81,0,0,0-.35,1.31A18.56,18.56,0,0,1,137.16,117.77Z"/><path class="cls-15" d="M162.71,110.84c-1.51-1-3-2.73-4-3.1,1.37,1.88,2.34,3.21,3.76,3.21-.48.25-1,.51-1.44.78-1.39-.89-2.75-2.51-3.65-2.85,1.26,1.73,2.16,3,3.46,3l-1.21.71-.29.18c-1.2-.9-2.29-2.47-3.11-2.86,1,1.69,1.7,2.86,3,2.9l-1.15.73c-1.11-.83-2.1-2.27-2.86-2.63.92,1.55,1.57,2.63,2.79,2.68l-1.19.81c-1-.82-1.77-2.17-2.43-2.53.74,1.45,1.26,2.46,2.35,2.59l-.64.46-.37.27c-.88-.75-1.63-2-2.24-2.33.68,1.34,1.17,2.27,2.17,2.38q-.5.37-1,.77c-.82-.62-1.51-1.68-2.08-1.95.62,1.14,1.06,1.93,2,2l-.18.14-.71.59c-.74-.58-1.37-1.53-1.89-1.77.57,1,1,1.75,1.83,1.83-.28.24-.54.49-.8.77a.08.08,0,0,0,.12.11h0c.24-.24.49-.47.75-.7-.24.68.11,1.37.59,2.31a19.75,19.75,0,0,0-.41-2.46l.63-.51.15-.12c-.34.77,0,1.54.6,2.61a24.49,24.49,0,0,0-.45-2.73l.92-.68c-.4.87.1,1.77.8,3,.07-.69-.54-2-.67-3.14l.32-.23.62-.42c-.41.93.13,1.91.88,3.28.07-.74-.57-2.15-.73-3.39l1.09-.71c-.36,1,.14,2,.83,3.47.12-.78-.45-2.3-.57-3.63l.89-.54c-.4,1,.14,2.19.9,3.78.13-.85-.49-2.49-.62-3.94l.23-.14,1.23-.69c-.46,1,0,2.39.68,4.22.22-.9-.31-2.81-.32-4.42q.69-.37,1.4-.72c-.67,1.16-.13,2.68.63,4.79.24-1-.36-3.15-.35-4.93l.41-.2c.43-.2.87-.39,1.31-.58-.78,1.22-.29,2.89.41,5.22.33-1.07-.19-3.44-.07-5.36q.73-.3,1.46-.56c-.94,1.33-.4,3.17.37,5.76.36-1.17-.22-3.77-.07-5.87l.45-.16h0a.26.26,0,1,0-.17-.49l-.49.18a31.46,31.46,0,0,1-3.32-2.43l-.8,0c1.3,1.54,2.37,2.59,3.7,2.61-.51.2-1,.41-1.51.63-1.69-1-3.4-2.77-4.49-3.1,1.56,1.9,2.68,3.25,4.15,3.25l-1.12.52Z"/><path class="cls-15" d="M150.22,129.53c-1.1-1.2-1.88-2-3-1.86l.5-.61.28-.36c1,.49,2.11,1.49,2.78,1.64-1-1.11-1.73-1.88-2.72-1.72q.39-.5.75-1c1,.38,1.9,1.21,2.52,1.32-.91-.93-1.54-1.57-2.48-1.37l.14-.19.52-.76a25.42,25.42,0,0,0,2.29,1.2c-.82-.84-1.4-1.43-2.25-1.27.2-.31.39-.62.56-1a.08.08,0,0,0-.15-.08h0c-.16.3-.34.59-.54.87.05-.72-.47-1.29-1.19-2.07a19.74,19.74,0,0,0,1.05,2.27l-.47.66-.12.15c.12-.83-.46-1.47-1.28-2.36a24.49,24.49,0,0,0,1.16,2.51q-.35.46-.71.9c.15-.94-.57-1.68-1.59-2.72.12.68,1,1.78,1.49,2.85l-.25.31-.49.57c.14-1-.63-1.81-1.73-2.92.13.73,1.13,1.92,1.61,3.07l-.86,1c.1-1-.67-1.9-1.73-3.13.09.79,1.05,2.09,1.52,3.35l-.71.76c.11-1.1-.72-2.07-1.87-3.4.1.85,1.14,2.27,1.65,3.63l-.19.2-1,1c.17-1.13-.66-2.3-1.79-3.88,0,.93,1,2.62,1.49,4.17q-.57.54-1.16,1.06c.34-1.3-.59-2.61-1.89-4.44,0,1,1.19,2.94,1.65,4.65l-.34.3c-.36.31-.73.61-1.1.9.43-1.38-.5-2.87-1.79-4.92,0,1.12,1.11,3.26,1.5,5.15q-.62.48-1.26.93a3.61,3.61,0,0,0-.38-2.82c.12,1.19.21,2.35.29,3.49l.14-.1c2.05.51,4.38,1.91,5.62,1.94-2.16-1.52-3.72-2.61-5.25-2.21.44-.33.87-.66,1.29-1,1.89.47,4,1.76,5.16,1.79-2-1.41-3.45-2.42-4.87-2l.94-.81.52-.47c1.71.53,3.62,1.83,4.66,1.92-1.82-1.45-3.12-2.46-4.48-2.08q.6-.56,1.17-1.14c1.57.49,3.32,1.69,4.28,1.77-1.68-1.33-2.87-2.27-4.12-1.92.33-.33.66-.67,1-1l.23-.25c1.4.54,2.87,1.77,3.76,1.92-1.42-1.36-2.41-2.3-3.7-2l.91-1c1.29.5,2.64,1.63,3.46,1.77-1.3-1.25-2.21-2.12-3.4-1.83q.47-.54.93-1.1C148.34,128.28,149.49,129.36,150.22,129.53Z"/><path class="cls-15" d="M167.63,128.8c-.72.32-1.69,1.62-2.76,2.43l-.93-.46c1.09-.22,1.77-1.3,2.71-2.79-.78.35-1.84,1.76-3,2.64l-.24-.12-1.24-.67c1.13-.17,2-1.3,3.19-2.84-.88.3-2.2,1.77-3.55,2.64q-.69-.39-1.36-.8c1.34-.06,2.33-1.33,3.7-3.11-1,.33-2.46,2-4,2.94l-.39-.24c-.4-.26-.8-.52-1.19-.79,1.45,0,2.6-1.31,4.19-3.15-1.08.3-2.8,2-4.49,2.94q-.64-.45-1.26-.93c1.63.08,2.89-1.37,4.66-3.41-1.18.33-3.06,2.21-4.91,3.21l-.37-.3h0a.26.26,0,0,0-.32.4l.41.31c.12,2.11-.55,4.75-.22,5.94.82-2.52,1.41-4.32.58-5.67.44.32.89.63,1.34.94.1,1.94-.51,4.36-.2,5.46.76-2.33,1.3-4,.52-5.25l1,.66.6.36c0,1.79-.7,4-.48,5,.85-2.17,1.45-3.7.68-4.9.47.27.95.54,1.43.79,0,1.65-.64,3.67-.44,4.61.78-2,1.33-3.4.63-4.51l1.25.64.31.15c-.11,1.5-.86,3.26-.74,4.16.89-1.75,1.5-3,.82-4.12l1.23.57c-.11,1.38-.79,3-.68,3.82.82-1.61,1.38-2.73.76-3.79l1.32.57c-.18,1.24-.88,2.66-.82,3.41.82-1.4,1.4-2.39.92-3.37l.73.3.43.16c-.16,1.15-.81,2.45-.76,3.14.76-1.3,1.29-2.2.85-3.11l1.18.43c-.09,1-.6,2.17-.53,2.8.62-1.14,1.05-1.93.58-2.78l.22.08.88.28a25.52,25.52,0,0,0-.48,2.55c.57-1,1-1.76.56-2.52a11,11,0,0,0,1.07.26.08.08,0,0,0,0-.16h0c-.33-.07-.66-.16-1-.26.7-.16,1.09-.83,1.63-1.74-.51.23-1.13,1.11-1.86,1.67l-.77-.26L169,133c.83-.12,1.27-.87,1.88-1.91-.56.25-1.26,1.24-2.06,1.84l-1.07-.41c.94-.13,1.44-1,2.14-2.32-.61.31-1.39,1.52-2.29,2.26l-.37-.15-.69-.3c1-.16,1.54-1.13,2.29-2.51-.66.34-1.5,1.64-2.46,2.43l-1.18-.54C166.14,131.17,166.77,130.17,167.63,128.8Z"/><path class="cls-15" d="M161.86,142.14a25.53,25.53,0,0,0,2.37,1.06c-.87-.79-1.49-1.34-2.33-1.12.18-.32.35-.65.5-1a.08.08,0,0,0-.15-.07h0c-.14.31-.31.61-.48.9,0-.72-.55-1.26-1.32-2a19.73,19.73,0,0,0,1.19,2.19l-.43.69-.11.16c.07-.84-.55-1.44-1.43-2.27a24.43,24.43,0,0,0,1.32,2.43q-.32.48-.65.94c.09-.95-.68-1.64-1.76-2.62.16.67,1.16,1.71,1.67,2.75l-.23.32-.45.6c.08-1-.75-1.76-1.91-2.81.18.72,1.25,1.84,1.8,3l-.8,1c0-1-.79-1.86-1.92-3,.14.78,1.18,2,1.73,3.25l-.66.8c0-1.11-.85-2-2.08-3.28.16.84,1.28,2.19,1.88,3.52l-.18.21q-.46.53-.94,1.06c.1-1.14-.8-2.25-2-3.76.09.92,1.21,2.55,1.75,4.07q-.53.58-1.09,1.14c.26-1.32-.75-2.57-2.17-4.32.1,1,1.38,2.86,1.94,4.54l-.32.32c-.34.33-.69.65-1,1,.34-1.41-.68-2.83-2.1-4.8,0,1.12,1.31,3.19,1.82,5q-.59.52-1.2,1c.45-1.57-.66-3.13-2.24-5.32,0,1.22,1.44,3.49,2,5.52l-.37.29h0a.26.26,0,0,0,.32.4l.4-.33c2.08.38,4.49,1.63,5.73,1.59-2.26-1.38-3.88-2.37-5.38-1.87.42-.35.82-.72,1.22-1.09,1.91.35,4.12,1.5,5.26,1.46-2.09-1.28-3.6-2.19-5-1.71l.88-.86.49-.5c1.74.42,3.72,1.6,4.78,1.62-1.91-1.33-3.27-2.26-4.61-1.8.37-.4.74-.8,1.1-1.21,1.6.39,3.42,1.47,4.38,1.49-1.76-1.22-3-2.08-4.24-1.66q.46-.53.91-1.07l.21-.27c1.43.45,3,1.59,3.87,1.68-1.5-1.27-2.55-2.15-3.82-1.75l.84-1.06c1.32.42,2.73,1.46,3.56,1.55-1.38-1.17-2.34-2-3.51-1.61q.44-.57.86-1.16c1.17.46,2.38,1.47,3.13,1.59-1.18-1.13-2-1.91-3.07-1.67l.46-.64.26-.38c1.08.42,2.2,1.35,2.88,1.46-1.09-1-1.85-1.76-2.83-1.54q.35-.52.69-1.05c1,.32,2,1.09,2.6,1.16-1-.87-1.63-1.47-2.57-1.21l.12-.2C161.55,142.67,161.7,142.41,161.86,142.14Z"/><path class="cls-15" d="M167.92,153.3c.2-.27.43-.53.66-.78-.16.7.28,1.34.87,2.22a19.72,19.72,0,0,0-.71-2.4l.57-.58.14-.13c-.25.81.24,1.52.92,2.52a24.52,24.52,0,0,0-.78-2.65l.83-.79c-.29.91.32,1.75,1.17,2.93,0-.69-.78-1.91-1.06-3l.29-.27.57-.5c-.29,1,.36,1.88,1.28,3.15,0-.74-.83-2.06-1.14-3.27l1-.83c-.25,1,.38,2,1.25,3.35,0-.79-.73-2.22-1-3.54l.81-.65c-.27,1.08.41,2.16,1.35,3.64,0-.86-.79-2.41-1.1-3.84l.22-.17,1.14-.84c-.33,1.09.31,2.37,1.19,4.1.11-.92-.65-2.75-.86-4.34q.64-.45,1.3-.88c-.53,1.24.2,2.67,1.22,4.67.12-1-.75-3.09-.95-4.85l.38-.25c.4-.25.81-.49,1.22-.73-.63,1.31.07,2.91,1,5.13.19-1.1-.62-3.39-.73-5.31q.68-.39,1.38-.74c-.77,1.44,0,3.2,1.08,5.67.21-1.21-.68-3.72-.79-5.81l.43-.21h0a.26.26,0,1,0-.23-.46l-.46.24c-2-.8-4-2.54-5.27-2.75,1.92,1.82,3.3,3.13,4.87,3-.48.26-1,.53-1.42.81-1.8-.74-3.72-2.33-4.84-2.53,1.78,1.69,3.06,2.9,4.52,2.72l-1,.66-.58.39c-1.62-.77-3.31-2.35-4.33-2.59,1.59,1.7,2.72,2.9,4.13,2.72-.45.31-.89.63-1.33,1-1.49-.71-3-2.16-4-2.38,1.46,1.56,2.5,2.66,3.8,2.51l-1.11.86-.27.21c-1.31-.75-2.58-2.17-3.43-2.46,1.2,1.56,2,2.63,3.37,2.51l-1,.86c-1.2-.69-2.37-2-3.16-2.26,1.1,1.43,1.88,2.42,3.09,2.31l-1.09.95c-1-.7-2-1.93-2.72-2.21.91,1.35,1.56,2.29,2.65,2.28l-.58.53-.33.32c-1-.64-1.87-1.78-2.51-2,.84,1.24,1.44,2.11,2.44,2.1q-.45.43-.89.88c-.89-.52-1.7-1.48-2.3-1.68.76,1.05,1.29,1.78,2.26,1.72l-.16.16-.63.68c-.81-.48-1.55-1.35-2.09-1.53.69,1,1.17,1.62,2,1.59-.24.27-.48.56-.7.86a.08.08,0,0,0,.13.1Z"/><path class="cls-15" d="M156.2,167.54q.6-.56,1.17-1.14c1.57.49,3.32,1.69,4.28,1.77-1.68-1.33-2.87-2.27-4.13-1.92l1-1,.23-.25c1.4.55,2.87,1.77,3.76,1.92-1.42-1.36-2.41-2.3-3.7-2l.91-1c1.29.5,2.64,1.63,3.46,1.77-1.3-1.25-2.21-2.12-3.4-1.83q.47-.54.93-1.1c1.14.53,2.29,1.61,3,1.78-1.1-1.2-1.88-2-3-1.86l.5-.61.28-.36c1,.49,2.11,1.49,2.78,1.64-1-1.11-1.73-1.88-2.72-1.72q.39-.5.75-1c1,.38,1.9,1.21,2.52,1.32-.91-.93-1.54-1.57-2.48-1.37l.14-.19.52-.76a25.57,25.57,0,0,0,2.29,1.2c-.82-.84-1.4-1.43-2.25-1.27.2-.31.39-.62.56-1a.08.08,0,0,0-.15-.08h0c-.16.3-.35.59-.54.87.05-.72-.47-1.29-1.19-2.07a19.7,19.7,0,0,0,1.05,2.27l-.47.66-.12.15c.12-.83-.46-1.47-1.28-2.36a24.45,24.45,0,0,0,1.16,2.51q-.35.46-.71.9c.15-.94-.57-1.68-1.59-2.72.12.68,1,1.78,1.49,2.85l-.25.31-.49.57c.14-1-.63-1.8-1.73-2.92.13.73,1.13,1.92,1.61,3.07l-.86,1c.1-1-.67-1.9-1.73-3.13.09.78,1.05,2.09,1.52,3.35l-.71.76c.11-1.1-.72-2.07-1.87-3.4.1.85,1.14,2.27,1.65,3.63l-.19.2q-.49.5-1,1c.17-1.13-.66-2.3-1.79-3.88,0,.93,1,2.62,1.49,4.17q-.57.54-1.16,1.06c.34-1.3-.59-2.61-1.89-4.44,0,1,1.19,2.94,1.65,4.65l-.34.3c-.36.31-.73.61-1.1.9.43-1.38-.5-2.87-1.79-4.92,0,1.11,1.08,3.21,1.48,5.08l.77.05.92-.79.52-.47a32.54,32.54,0,0,1,3.46,1.54l.76,0C158.65,168,157.45,167.2,156.2,167.54Z"/><path class="cls-15" d="M150.67,164.47c0,1,.75,2.64,1.28,4.31l.76.06C152.62,167.6,151.77,166.23,150.67,164.47Z"/><path class="cls-15" d="M154.64,169l1.51.09A2.71,2.71,0,0,0,154.64,169Z"/><path class="cls-15" d="M183.74,166.88l.08-.18-.37-.12-.18-.07a1.51,1.51,0,0,0,.77-.36c.09-.26.18-.54.26-.85a11.29,11.29,0,0,1-1.2,1.14L182,166c.94-.13,1.44-1,2.14-2.32-.61.31-1.39,1.52-2.29,2.26l-.37-.15-.69-.3c1-.16,1.54-1.13,2.29-2.51-.66.34-1.5,1.64-2.46,2.43l-1.18-.54c1-.2,1.63-1.2,2.49-2.56-.72.32-1.69,1.62-2.76,2.43l-.93-.46c1.09-.22,1.77-1.3,2.71-2.79-.78.35-1.84,1.76-3,2.64l-.24-.12-1.24-.67c1.13-.17,2-1.3,3.19-2.84-.88.3-2.2,1.77-3.55,2.64q-.69-.39-1.36-.8c1.34-.06,2.33-1.33,3.7-3.11-1,.33-2.46,2-4,2.94l-.39-.24c-.4-.26-.8-.52-1.19-.79,1.45,0,2.6-1.31,4.19-3.15-1.08.3-2.8,2-4.49,2.94q-.64-.45-1.26-.93c1.63.08,2.89-1.37,4.66-3.41-1.18.33-3.06,2.21-4.91,3.21l-.37-.3h0a.26.26,0,1,0-.32.4l.41.31c.12,2.11-.55,4.75-.22,5.94.82-2.51,1.41-4.32.58-5.67.44.32.89.63,1.34.94.1,1.94-.51,4.36-.2,5.46.76-2.33,1.3-4,.52-5.25l1,.66.6.36c0,1.79-.7,4-.48,5,.85-2.17,1.45-3.7.68-4.9.47.27.95.54,1.43.79,0,1.65-.64,3.67-.44,4.61.78-2,1.33-3.4.63-4.51l1.25.64.31.15c-.11,1.5-.86,3.26-.74,4.16.89-1.76,1.5-3,.82-4.12l1.23.57c-.1,1.34-.74,2.89-.68,3.74h0c.79-1.56,1.32-2.66.71-3.7l1.32.57c-.15,1-.63,2.13-.78,2.92l.27-.05c.64-1.12,1-2,.6-2.82l.73.3.43.16a15.17,15.17,0,0,1-.56,2.08l.46-.13a2.09,2.09,0,0,0,.19-1.92l1.18.43a6.49,6.49,0,0,1-.19,1,3.88,3.88,0,0,0,.44-.26,1.49,1.49,0,0,0-.19-.74l.22.08Z"/><path class="cls-15" d="M145.26,146h0a.26.26,0,0,0-.14-.5l-.5.15c-1.77-1.15-3.5-3.25-4.66-3.69,1.54,2.15,2.66,3.69,4.23,3.81-.52.16-1,.34-1.55.53-1.2-.79-2.38-2-3.35-2.8,0,.23,0,.45,0,.68,1,1.3,1.87,2.17,3,2.25l-1.15.45-.64.27a11.86,11.86,0,0,1-1.21-1.06c0,.28,0,.56,0,.83a2.23,2.23,0,0,0,1,.32l-1,.47v.42l1.34-.58c-.75,1.12-.3,2.66.32,4.82.31-1-.16-3.17,0-4.94l.42-.17,1.34-.49c-.86,1.17-.47,2.87.07,5.24.4-1,0-3.44.28-5.36q.74-.25,1.5-.47c-1,1.27-.6,3.14,0,5.77.43-1.15,0-3.78.31-5.86Z"/><path class="cls-15" d="M139.08,152.28l.1.35a9,9,0,0,0,0-2.61C139.15,150.79,139.12,151.55,139.08,152.28Z"/><path class="cls-15" d="M142.62,166.91l-.38-.59c.81-1.6,2.43-3.25,2.7-4.26-1.74,1.55-3,2.64-2.83,4.06-.3-.46-.6-.91-.92-1.35.75-1.47,2.23-3,2.48-3.91-1.6,1.42-2.73,2.43-2.61,3.73-.27-.38-.55-.76-.83-1.13l-.21-.27c.78-1.29,2.24-2.52,2.54-3.37-1.59,1.16-2.68,2-2.59,3.31l-.84-1.07c.72-1.18,2.06-2.32,2.34-3.1-1.46,1.07-2.47,1.81-2.39,3l-.62-.74,0,.42.36.45a1.85,1.85,0,0,0-.38-.06c0,.15,0,.29,0,.44l.59-.14.62.83a2.25,2.25,0,0,0-1.24,0c0,.21,0,.42,0,.62a12,12,0,0,1,1.46-.39l.16.22q.41.57.81,1.16a3.59,3.59,0,0,0-2.44.32c0,.18,0,.38,0,.56a23.48,23.48,0,0,1,2.67-.54q.44.65.85,1.32c-1-.44-2.05-.11-3.45.52,0,.13,0,.28,0,.4l.23,0a29.12,29.12,0,0,1,3.37-.67l.24.39c.15.26.29.52.44.77l.56.06Q142.94,167.43,142.62,166.91Z"/><path class="cls-15" d="M138.71,157.83l0,.47a3.54,3.54,0,0,0,.7-.9Z"/><path class="cls-15" d="M144.59,168.11l.89.09a13.67,13.67,0,0,0,1.81-3.26A15.22,15.22,0,0,0,144.59,168.11Z"/><path class="cls-15" d="M143.58,168c.83-1.69,2.29-3.42,2.51-4.48-1.73,1.73-3,3-2.84,4.44Z"/><path class="cls-15" d="M138.58,159.62l-.05.79a15.09,15.09,0,0,0,1.92-2.21A8.72,8.72,0,0,0,138.58,159.62Z"/></g><path class="cls-14" d="M208,135.17l4.42-4.69,6.12,8.62s-5.17,3.67-10.12,3.52l-.57-1.27A6.94,6.94,0,0,1,208,135.17Z"/><path class="cls-14" d="M219.55,130.93l1.73,3.26a3.06,3.06,0,0,1-1.25,4.13l-1.45.78-6.12-8.62,3.5-1A3.06,3.06,0,0,1,219.55,130.93Z"/><path class="cls-14" d="M184.68,118.34l.37,1.91.42,2c.3,1.35.6,2.7.94,4,.65,2.68,1.42,5.31,2.26,7.85a53,53,0,0,0,3,7.11,19.13,19.13,0,0,0,3.67,5.1l-2.13-1c-.62-.09-.73.11-.41.09a4.61,4.61,0,0,0,1.52-.43,25.53,25.53,0,0,0,4.26-2.49c1.49-1,3-2.19,4.48-3.39s3-2.5,4.47-3.69l.15-.13a3.52,3.52,0,0,1,5.36,4.33,50.5,50.5,0,0,1-3.35,5.55,51.05,51.05,0,0,1-4.07,5.16,30.9,30.9,0,0,1-5.39,4.78,17.54,17.54,0,0,1-4,2,11.73,11.73,0,0,1-2.82.62,10.75,10.75,0,0,1-3.56-.26,5.47,5.47,0,0,1-1.88-.87l-.24-.18a29,29,0,0,1-7.61-8.49c-.91-1.49-1.73-3-2.47-4.49s-1.36-3-2-4.54a81.88,81.88,0,0,1-2.93-9.15c-.39-1.54-.76-3.07-1.07-4.62-.16-.77-.31-1.55-.44-2.34s-.25-1.53-.38-2.47a7,7,0,0,1,13.8-2.31Z"/><path class="cls-15" d="M175.09,107.84c5.81.6,10.47,4.46,13.72,16.75-2.5,3.46-18.25,11.05-18.25,11.05S161.79,106.46,175.09,107.84Z"/></g></g></svg>