<svg xmlns="http://www.w3.org/2000/svg" version="1.1" xmlns:xlink="http://www.w3.org/1999/xlink" xmlns:svgjs="http://svgjs.dev/svgjs" viewBox="0 0 9.041438963408154 2.670909505867231"><g transform="matrix(1,0,0,1,2.3689489349642363,0.4379752779336158)"><g><path d=" M 0.0915 1.0649999999999997 L 0.0915 -2.220446049250313e-16 L 0.8220000000000001 -2.220446049250313e-16 L 0.8220000000000001 0.25499999999999967 L 0.384 0.25499999999999967 L 0.384 0.4319999999999997 L 0.741 0.4319999999999997 L 0.741 0.6689999999999997 L 0.384 0.6689999999999997 L 0.384 1.0649999999999997 L 0.0915 1.0649999999999997 M 0.950982421875 1.0649999999999997 L 0.950982421875 -2.220446049250313e-16 L 1.243482421875 -2.220446049250313e-16 L 1.243482421875 1.0649999999999997 L 0.950982421875 1.0649999999999997 M 1.7340073242187501 0.5414999999999998 L 1.7340073242187501 1.0649999999999997 L 1.44150732421875 1.0649999999999997 L 1.44150732421875 -2.220446049250313e-16 L 1.66950732421875 -2.220446049250313e-16 L 2.09700732421875 0.5414999999999998 L 2.09700732421875 -2.220446049250313e-16 L 2.38950732421875 -2.220446049250313e-16 L 2.38950732421875 1.0649999999999997 L 2.15700732421875 1.0649999999999997 L 1.7340073242187501 0.5414999999999998 M 2.5875498046875 1.0649999999999997 L 2.5875498046875 -2.220446049250313e-16 L 3.3180498046875 -2.220446049250313e-16 L 3.3180498046875 0.25499999999999967 L 2.8800498046875 0.25499999999999967 L 2.8800498046875 0.4319999999999997 L 3.2370498046875 0.4319999999999997 L 3.2370498046875 0.6689999999999997 L 2.8800498046875 0.6689999999999997 L 2.8800498046875 1.0649999999999997 L 2.5875498046875 1.0649999999999997 M 3.4470322265625 1.0649999999999997 L 3.4470322265625 -2.220446049250313e-16 L 3.7395322265625 -2.220446049250313e-16 L 3.7395322265625 0.8099999999999997 L 4.2225322265625 0.8099999999999997 L 4.2225322265625 1.0649999999999997 L 3.4470322265625 1.0649999999999997 M 5.098565185546875 0.8099999999999997 L 5.098565185546875 1.0649999999999997 L 4.339565185546875 1.0649999999999997 L 4.339565185546875 -2.220446049250313e-16 L 5.085065185546875 -2.220446049250313e-16 L 5.085065185546875 0.25499999999999967 L 4.6320651855468755 0.25499999999999967 L 4.6320651855468755 0.4049999999999997 L 5.019065185546875 0.4049999999999997 L 5.019065185546875 0.6419999999999997 L 4.6320651855468755 0.6419999999999997 L 4.6320651855468755 0.8099999999999997 L 5.098565185546875 0.8099999999999997 M 5.45854248046875 -2.220446049250313e-16 L 5.65204248046875 0.33599999999999974 L 5.84554248046875 -2.220446049250313e-16 L 6.16054248046875 -2.220446049250313e-16 L 5.82604248046875 0.5399999999999997 L 6.14854248046875 1.0649999999999997 L 5.83354248046875 1.0649999999999997 L 5.65204248046875 0.7439999999999998 L 5.47054248046875 1.0649999999999997 L 5.15404248046875 1.0649999999999997 L 5.4765424804687495 0.5399999999999997 L 5.14204248046875 -2.220446049250313e-16 L 5.45854248046875 -2.220446049250313e-16" fill="#0d6efd" fill-rule="nonzero"></path></g><g><path d=" M 0.04926149999999999 1.7949589499999996 L 0.04926149999999999 1.4019739499999997 L 0.3071925 1.4019739499999997 L 0.3071925 1.4362909499999996 L 0.08800649999999999 1.4362909499999996 L 0.08800649999999999 1.5807544499999997 L 0.2728755 1.5807544499999997 L 0.2728755 1.6128574499999997 L 0.08800649999999999 1.6128574499999997 L 0.08800649999999999 1.7949589499999996 L 0.04926149999999999 1.7949589499999996 M 0.38080205419921875 1.7949589499999996 L 0.38080205419921875 1.4019739499999997 L 0.4195470541992187 1.4019739499999997 L 0.4195470541992187 1.7949589499999996 L 0.38080205419921875 1.7949589499999996 M 0.5623422165527343 1.4733754499999996 L 0.5623422165527343 1.7949589499999996 L 0.5235972165527344 1.7949589499999996 L 0.5235972165527344 1.4019739499999997 L 0.5557002165527344 1.4019739499999997 L 0.8136312165527344 1.7296459499999997 L 0.8136312165527344 1.4025274499999996 L 0.8523762165527343 1.4025274499999996 L 0.8523762165527343 1.7949589499999996 L 0.8163987165527343 1.7949589499999996 L 0.5623422165527343 1.4733754499999996 M 1.0781890817871094 1.4019739499999997 L 1.1108455817871095 1.4019739499999997 L 1.2741280817871092 1.7949589499999996 L 1.2331690817871093 1.7949589499999996 L 1.1822470817871094 1.6720819499999997 L 1.0056805817871093 1.6720819499999997 L 0.9553120817871094 1.7949589499999996 L 0.9137995817871094 1.7949589499999996 L 1.0781890817871094 1.4019739499999997 M 1.1733910817871094 1.6416394499999996 L 1.0942405817871093 1.4473609499999998 L 1.0139830817871094 1.6416394499999996 L 1.1733910817871094 1.6416394499999996 M 1.374879135498047 1.4733754499999996 L 1.374879135498047 1.7949589499999996 L 1.336134135498047 1.7949589499999996 L 1.336134135498047 1.4019739499999997 L 1.368237135498047 1.4019739499999997 L 1.6261681354980468 1.7296459499999997 L 1.6261681354980468 1.4025274499999996 L 1.6649131354980469 1.4025274499999996 L 1.6649131354980469 1.7949589499999996 L 1.6289356354980469 1.7949589499999996 L 1.374879135498047 1.4733754499999996 M 1.7429415007324218 1.5956989499999996 Q 1.7429415007324218 1.5597214499999996 1.7553952507324218 1.5251276999999996 Q 1.767849000732422 1.4905339499999997 1.7916495007324218 1.4620286999999996 Q 1.815450000732422 1.4335234499999996 1.8503205007324217 1.4166416999999996 Q 1.8851910007324217 1.3997599499999995 1.9294710007324218 1.3997599499999995 Q 1.9820535007324218 1.3997599499999995 2.019414750732422 1.4238371999999997 Q 2.056776000732422 1.4479144499999996 2.074488000732422 1.4855524499999997 L 2.044045500732422 1.5043714499999996 Q 2.031315000732422 1.4783569499999996 2.0119425007324216 1.4631356999999996 Q 1.9925700007324219 1.4479144499999996 1.9707067507324219 1.4412724499999996 Q 1.9488435007324219 1.4346304499999996 1.9272570007324217 1.4346304499999996 Q 1.8918330007324218 1.4346304499999996 1.8647115007324218 1.4487446999999998 Q 1.8375900007324217 1.4628589499999998 1.8190477507324219 1.4863826999999996 Q 1.8005055007324218 1.5099064499999997 1.7910960007324217 1.5389651999999996 Q 1.7816865007324219 1.5680239499999997 1.7816865007324219 1.5979129499999996 Q 1.7816865007324219 1.6305694499999996 1.7927565007324218 1.6604584499999997 Q 1.803826500732422 1.6903474499999995 1.8237525007324218 1.7133176999999997 Q 1.843678500732422 1.7362879499999997 1.8705232507324219 1.7498486999999996 Q 1.8973680007324218 1.7634094499999997 1.9289175007324217 1.7634094499999997 Q 1.9510575007324218 1.7634094499999997 1.9743045007324218 1.7556604499999997 Q 1.9975515007324218 1.7479114499999997 2.0177542507324215 1.7318599499999996 Q 2.0379570007324217 1.7158084499999997 2.050134000732422 1.6903474499999995 L 2.082237000732422 1.7069524499999997 Q 2.070060000732422 1.7362879499999997 2.044599000732422 1.7567674499999997 Q 2.019138000732422 1.7772469499999997 1.9878652507324217 1.7877634499999997 Q 1.9565925007324219 1.7982799499999995 1.9267035007324218 1.7982799499999995 Q 1.8862980007324217 1.7982799499999995 1.8525345007324219 1.7808446999999996 Q 1.8187710007324218 1.7634094499999997 1.7941402507324218 1.7343506999999996 Q 1.7695095007324217 1.7052919499999997 1.756225500732422 1.6690376999999996 Q 1.7429415007324218 1.6327834499999996 1.7429415007324218 1.5956989499999996 M 2.1541776767578127 1.7949589499999996 L 2.1541776767578127 1.4019739499999997 L 2.1929226767578127 1.4019739499999997 L 2.1929226767578127 1.7949589499999996 L 2.1541776767578127 1.7949589499999996 M 2.418742839111328 1.4019739499999997 L 2.4513993391113282 1.4019739499999997 L 2.614681839111328 1.7949589499999996 L 2.573722839111328 1.7949589499999996 L 2.522800839111328 1.6720819499999997 L 2.3462343391113283 1.6720819499999997 L 2.295865839111328 1.7949589499999996 L 2.254353339111328 1.7949589499999996 L 2.418742839111328 1.4019739499999997 M 2.513944839111328 1.6416394499999996 L 2.434794339111328 1.4473609499999998 L 2.354536839111328 1.6416394499999996 L 2.513944839111328 1.6416394499999996 M 2.6766878928222657 1.7949589499999996 L 2.6766878928222657 1.4019739499999997 L 2.7154328928222657 1.4019739499999997 L 2.7154328928222657 1.7606419499999997 L 2.942367892822266 1.7606419499999997 L 2.942367892822266 1.7949589499999996 L 2.6766878928222657 1.7949589499999996 M 3.1355510141601566 1.7949589499999996 L 3.1355510141601566 1.4019739499999997 L 3.3934820141601563 1.4019739499999997 L 3.3934820141601563 1.4362909499999996 L 3.1742960141601566 1.4362909499999996 L 3.1742960141601566 1.5807544499999997 L 3.3591650141601566 1.5807544499999997 L 3.3591650141601566 1.6128574499999997 L 3.1742960141601566 1.6128574499999997 L 3.1742960141601566 1.7949589499999996 L 3.1355510141601566 1.7949589499999996 M 3.4670915683593755 1.7949589499999996 L 3.4670915683593755 1.4019739499999997 L 3.5058365683593755 1.4019739499999997 L 3.5058365683593755 1.7606419499999997 L 3.732771568359375 1.7606419499999997 L 3.732771568359375 1.7949589499999996 L 3.4670915683593755 1.7949589499999996 M 4.059340892578126 1.7606419499999997 L 4.059340892578126 1.7949589499999996 L 3.7953213925781255 1.7949589499999996 L 3.7953213925781255 1.4019739499999997 L 4.054359392578125 1.4019739499999997 L 4.054359392578125 1.4362909499999996 L 3.8340663925781255 1.4362909499999996 L 3.8340663925781255 1.5779869499999997 L 4.026130892578125 1.5779869499999997 L 4.026130892578125 1.6106434499999995 L 3.8340663925781255 1.6106434499999995 L 3.8340663925781255 1.7606419499999997 L 4.059340892578126 1.7606419499999997 M 4.135728757324219 1.4019739499999997 L 4.264140757324219 1.5730054499999997 L 4.391999257324219 1.4019739499999997 L 4.435725757324219 1.4019739499999997 L 4.285173757324219 1.6012339499999997 L 4.431297757324219 1.7949589499999996 L 4.387571257324219 1.7949589499999996 L 4.264140757324219 1.6294624499999997 L 4.140156757324219 1.7949589499999996 L 4.095876757324219 1.7949589499999996 L 4.242000757324219 1.6012339499999997 L 4.091448757324219 1.4019739499999997 L 4.135728757324219 1.4019739499999997 M 4.493300297607422 1.7949589499999996 L 4.493300297607422 1.4019739499999997 L 4.5320452976074215 1.4019739499999997 L 4.5320452976074215 1.7949589499999996 L 4.493300297607422 1.7949589499999996 M 4.931664459960937 1.6936684499999997 Q 4.931664459960937 1.7230039499999996 4.916719959960938 1.7459741999999996 Q 4.9017754599609376 1.7689444499999996 4.876591209960938 1.7819516999999996 Q 4.851406959960938 1.7949589499999996 4.8215179599609375 1.7949589499999996 L 4.636095459960938 1.7949589499999996 L 4.636095459960938 1.4019739499999997 L 4.825392459960938 1.4019739499999997 Q 4.853067459960938 1.4019739499999997 4.873270209960938 1.4166416999999996 Q 4.8934729599609375 1.4313094499999997 4.904266209960937 1.4542796999999996 Q 4.915059459960938 1.4772499499999996 4.915059459960938 1.5021574499999997 Q 4.915059459960938 1.5314929499999996 4.900114959960938 1.5564004499999997 Q 4.885170459960937 1.5813079499999996 4.858602459960938 1.5934849499999997 Q 4.892365959960938 1.6034479499999996 4.912015209960938 1.6305694499999996 Q 4.931664459960937 1.6576909499999997 4.931664459960937 1.6936684499999997 M 4.892919459960938 1.6870264499999996 Q 4.892919459960938 1.6671004499999995 4.884063459960938 1.6502186999999997 Q 4.875207459960937 1.6333369499999997 4.859986209960938 1.6228204499999996 Q 4.844764959960938 1.6123039499999996 4.825392459960938 1.6123039499999996 L 4.6748404599609374 1.6123039499999996 L 4.6748404599609374 1.7611954499999996 L 4.8215179599609375 1.7611954499999996 Q 4.841443959960937 1.7611954499999996 4.857495459960938 1.7506789499999995 Q 4.873546959960938 1.7401624499999997 4.883233209960938 1.7232806999999997 Q 4.892919459960938 1.7063989499999996 4.892919459960938 1.6870264499999996 M 4.6748404599609374 1.4357374499999995 L 4.6748404599609374 1.5807544499999997 L 4.809894459960938 1.5807544499999997 Q 4.829266959960938 1.5807544499999997 4.844211459960937 1.5705146999999997 Q 4.859155959960938 1.5602749499999997 4.8680119599609375 1.5436699499999995 Q 4.876867959960938 1.5270649499999998 4.876867959960938 1.5082459499999996 Q 4.876867959960938 1.4883199499999997 4.868565459960938 1.4719916999999996 Q 4.860262959960938 1.4556634499999996 4.845871959960938 1.4457004499999997 Q 4.831480959960937 1.4357374499999995 4.813215459960937 1.4357374499999995 L 4.6748404599609374 1.4357374499999995 M 5.010270108398438 1.7949589499999996 L 5.010270108398438 1.4019739499999997 L 5.049015108398438 1.4019739499999997 L 5.049015108398438 1.7949589499999996 L 5.010270108398438 1.7949589499999996 M 5.153065270751954 1.7949589499999996 L 5.153065270751954 1.4019739499999997 L 5.191810270751954 1.4019739499999997 L 5.191810270751954 1.7606419499999997 L 5.418745270751954 1.7606419499999997 L 5.418745270751954 1.7949589499999996 L 5.153065270751954 1.7949589499999996 M 5.481295094970704 1.7949589499999996 L 5.481295094970704 1.4019739499999997 L 5.520040094970704 1.4019739499999997 L 5.520040094970704 1.7949589499999996 L 5.481295094970704 1.7949589499999996 M 5.903054257324221 1.4362909499999996 L 5.76301875732422 1.4362909499999996 L 5.76301875732422 1.7949589499999996 L 5.72427375732422 1.7949589499999996 L 5.72427375732422 1.4362909499999996 L 5.584238257324221 1.4362909499999996 L 5.584238257324221 1.4019739499999997 L 5.903054257324221 1.4019739499999997 L 5.903054257324221 1.4362909499999996 M 5.969466149414064 1.4019739499999997 L 6.097878149414065 1.6134109499999996 L 6.227397149414064 1.4019739499999997 L 6.269463149414064 1.4019739499999997 L 6.117250649414064 1.6488349499999997 L 6.117250649414064 1.7949589499999996 L 6.078505649414065 1.7949589499999996 L 6.078505649414065 1.6477279499999997 L 5.926846649414064 1.4019739499999997 L 5.969466149414064 1.4019739499999997" fill="#000000" fill-rule="nonzero"></path></g><g clip-path="url(&quot;#SvgjsClipPath1001&quot;)"><g clip-path="url(&quot;#SvgjsClipPath1000c8aace36-afb4-4687-bad0-bedd0a2b3682&quot;)"><path d=" M -0.40000000000000013 1.4292651963961178 L -0.597643078525562 1.5235712945390263 L -0.5977911257753938 0.5140370979354268 L -0.7014242006577105 0.46488541099124214 L -0.7014242006577105 0.8755684820248814 L -1.0967103577088344 1.0887565217827906 L -1.0968584049586663 1.4887801908285345 L -1.294501483484228 1.3947701871852898 L -1.294501483484228 1.0542615125719623 L -0.8990672791832726 0.841073472814053 L -0.8992153264331044 0.3708754073479975 L -1.3646758799045395 0.14954476884933476 L -1.4757113172784508 0.23097075625686952 L -1.4757113172784508 0.6145611805712743 L -1.6733543958040125 0.721155200450229 L -1.6733543958040125 0.22179182676729287 L -1.3109347282155668 -0.04380493943110242 L -0.4001480472498322 0.3890852190773189 L -0.40000000000000013 1.4292651963961178 Z" fill="#000000" transform="matrix(1,0,0,1,0,0)" fill-rule="evenodd"></path></g><g clip-path="url(&quot;#SvgjsClipPath1000c8aace36-afb4-4687-bad0-bedd0a2b3682&quot;)"><path d=" M -0.8990672791832726 1.180397769428725 L -0.8990672791832726 1.5639881937431301 L -1.0101027165571836 1.6452661339008332 L -1.4754152227787871 1.424083542652002 L -1.4757113172784508 0.9538854771859466 L -1.0802771129774955 0.7405493901782054 L -1.0801290657276637 0.40018876281471005 L -1.2779201915030571 0.30603071192163345 L -1.2780682387528892 0.706054380967377 L -1.6733543958040125 0.9192424207252864 L -1.6733543958040125 1.3300735390087572 L -1.7769874706863296 1.2809218520645727 L -1.7771355179361614 0.27138765546097315 L -1.9747785964617233 0.3655457063540498 L -1.9746305492118914 1.405725683672849 L -1.0638438682461566 1.838763889431102 L -0.7014242006577105 1.573167123232707 L -0.7014242006577105 1.0738037495497705 L -0.8990672791832726 1.180397769428725 Z" fill="#000000" transform="matrix(1,0,0,1,0,0)" fill-rule="evenodd"></path></g></g></g><defs><clipPath id="SvgjsClipPath1001"><path d=" M -1.9747785964617233 -0.04380493943110242 h 1.5747785964617231 v 1.8825688288622044 h -1.5747785964617231 Z"></path></clipPath><clipPath id="SvgjsClipPath1000c8aace36-afb4-4687-bad0-bedd0a2b3682"><path d=" M -1.9747785964617233 -0.04380493943110242 L -0.40000000000000013 -0.04380493943110242 L -0.40000000000000013 1.838763889431102 L -1.9747785964617233 1.838763889431102 Z"></path></clipPath></defs></svg>